<svg xmlns="http://www.w3.org/2000/svg" viewBox="0 0 640 340" font-family="'Hiragino Sans','Noto Sans JP',sans-serif">
  <rect width="640" height="340" fill="#fafaf8" rx="12"/>
  <text x="320" y="28" text-anchor="middle" font-size="14" font-weight="bold" fill="#1a1a1a">Asteraceae -- these are ALL relatives</text>

  <!-- Row 1 -->
  <g transform="translate(16,42)">
    <rect width="144" height="120" rx="8" fill="#fef9c3"/>
    <text x="72" y="50" text-anchor="middle" font-size="28">🌼</text>
    <text x="72" y="78" text-anchor="middle" font-size="11" fill="#713f12" font-weight="bold">Dandelion</text>
    <text x="72" y="93" text-anchor="middle" font-size="9" fill="#92400e" font-style="italic">Taraxacum</text>
    <rect y="100" width="144" height="20" rx="0" fill="rgba(0,0,0,0.55)"/>
    <text x="72" y="114" text-anchor="middle" font-size="11" fill="white" font-weight="bold">タンポポ</text>
  </g>

  <g transform="translate(168,42)">
    <rect width="144" height="120" rx="8" fill="#fef9c3"/>
    <text x="72" y="50" text-anchor="middle" font-size="28">🌻</text>
    <text x="72" y="78" text-anchor="middle" font-size="11" fill="#713f12" font-weight="bold">Sunflower</text>
    <text x="72" y="93" text-anchor="middle" font-size="9" fill="#92400e" font-style="italic">Helianthus</text>
    <rect y="100" width="144" height="20" rx="0" fill="rgba(0,0,0,0.55)"/>
    <text x="72" y="114" text-anchor="middle" font-size="11" fill="white" font-weight="bold">ヒマワリ</text>
  </g>

  <g transform="translate(320,42)">
    <rect width="144" height="120" rx="8" fill="#fef9c3"/>
    <text x="72" y="50" text-anchor="middle" font-size="28">🌸</text>
    <text x="72" y="78" text-anchor="middle" font-size="11" fill="#713f12" font-weight="bold">Chrysanthemum</text>
    <text x="72" y="93" text-anchor="middle" font-size="9" fill="#92400e" font-style="italic">Chrysanthemum</text>
    <rect y="100" width="144" height="20" rx="0" fill="rgba(0,0,0,0.55)"/>
    <text x="72" y="114" text-anchor="middle" font-size="11" fill="white" font-weight="bold">キク</text>
  </g>

  <g transform="translate(472,42)">
    <rect width="144" height="120" rx="8" fill="#fef9c3"/>
    <text x="72" y="50" text-anchor="middle" font-size="28">🌺</text>
    <text x="72" y="78" text-anchor="middle" font-size="11" fill="#713f12" font-weight="bold">Cosmos</text>
    <text x="72" y="93" text-anchor="middle" font-size="9" fill="#92400e" font-style="italic">Cosmos</text>
    <rect y="100" width="144" height="20" rx="0" fill="rgba(0,0,0,0.55)"/>
    <text x="72" y="114" text-anchor="middle" font-size="11" fill="white" font-weight="bold">コスモス</text>
  </g>

  <!-- Row 2 -->
  <g transform="translate(16,172)">
    <rect width="144" height="120" rx="8" fill="#ecfdf5"/>
    <text x="72" y="50" text-anchor="middle" font-size="28">🌼</text>
    <text x="72" y="78" text-anchor="middle" font-size="11" fill="#065f46" font-weight="bold">Daisy</text>
    <text x="72" y="93" text-anchor="middle" font-size="9" fill="#047857" font-style="italic">Leucanthemum</text>
    <rect y="100" width="144" height="20" rx="0" fill="rgba(0,0,0,0.55)"/>
    <text x="72" y="114" text-anchor="middle" font-size="11" fill="white" font-weight="bold">ヒナギク</text>
  </g>

  <g transform="translate(168,172)">
    <rect width="144" height="120" rx="8" fill="#ecfdf5"/>
    <text x="72" y="50" text-anchor="middle" font-size="28">🌿</text>
    <text x="72" y="78" text-anchor="middle" font-size="11" fill="#065f46" font-weight="bold">Burdock</text>
    <text x="72" y="93" text-anchor="middle" font-size="9" fill="#047857" font-style="italic">Arctium</text>
    <rect y="100" width="144" height="20" rx="0" fill="rgba(0,0,0,0.55)"/>
    <text x="72" y="114" text-anchor="middle" font-size="11" fill="white" font-weight="bold">ゴボウ</text>
  </g>

  <g transform="translate(320,172)">
    <rect width="144" height="120" rx="8" fill="#ecfdf5"/>
    <text x="72" y="50" text-anchor="middle" font-size="28">🥬</text>
    <text x="72" y="78" text-anchor="middle" font-size="11" fill="#065f46" font-weight="bold">Lettuce</text>
    <text x="72" y="93" text-anchor="middle" font-size="9" fill="#047857" font-style="italic">Lactuca</text>
    <rect y="100" width="144" height="20" rx="0" fill="rgba(0,0,0,0.55)"/>
    <text x="72" y="114" text-anchor="middle" font-size="11" fill="white" font-weight="bold">レタス</text>
  </g>

  <g transform="translate(472,172)">
    <rect width="144" height="120" rx="8" fill="#ecfdf5"/>
    <text x="72" y="50" text-anchor="middle" font-size="28">🌾</text>
    <text x="72" y="78" text-anchor="middle" font-size="11" fill="#065f46" font-weight="bold">Thistle</text>
    <text x="72" y="93" text-anchor="middle" font-size="9" fill="#047857" font-style="italic">Cirsium</text>
    <rect y="100" width="144" height="20" rx="0" fill="rgba(0,0,0,0.55)"/>
    <text x="72" y="114" text-anchor="middle" font-size="11" fill="white" font-weight="bold">アザミ</text>
  </g>

  <!-- Bottom label -->
  <rect x="100" y="304" width="440" height="26" rx="8" fill="#fefce8" stroke="#fde68a" stroke-width="1"/>
  <text x="320" y="322" text-anchor="middle" font-size="11" fill="#92400e">All Asteraceae -- wildly different in appearance, but united by the capitulum</text>
</svg>
